<?xml version="1.0" encoding="UTF-8" standalone="no"?>
<!-- Created with Inkscape (http://www.inkscape.org/) -->

<svg
   width="560.68585"
   height="183.74707"
   viewBox="0 0 148.34813 48.616412"
   version="1.1"
   id="svg1"
   inkscape:version="1.4.3 (0d15f75, 2025-12-25)"
   sodipodi:docname="cartio.svg"
   xmlns:inkscape="http://www.inkscape.org/namespaces/inkscape"
   xmlns:sodipodi="http://sodipodi.sourceforge.net/DTD/sodipodi-0.dtd"
   xmlns="http://www.w3.org/2000/svg"
   xmlns:svg="http://www.w3.org/2000/svg">
  <sodipodi:namedview
     id="namedview1"
     pagecolor="#ffffff"
     bordercolor="#000000"
     borderopacity="0.25"
     inkscape:showpageshadow="2"
     inkscape:pageopacity="0.0"
     inkscape:pagecheckerboard="0"
     inkscape:deskcolor="#d1d1d1"
     inkscape:document-units="mm"
     inkscape:zoom="1.3772587"
     inkscape:cx="197.8568"
     inkscape:cy="170.26576"
     inkscape:window-width="1920"
     inkscape:window-height="991"
     inkscape:window-x="-9"
     inkscape:window-y="-9"
     inkscape:window-maximized="1"
     inkscape:current-layer="layer1" />
  <defs
     id="defs1" />
  <g
     inkscape:label="cartio"
     inkscape:groupmode="layer"
     id="layer1"
     transform="translate(-10.492601,-12.733461)">
    <g
       id="g39"
       transform="translate(2.356849e-4)">
      <path
         d="m 121.30216,24.085868 c -0.94218,0.542396 -1.78012,1.24804 -2.51355,2.116667 -1.39567,2.107671 -1.17501,4.00394 0.66146,5.688542 2.29659,0.439473 4.10448,-0.310092 5.42396,-2.248959 1.70895,-3.636169 0.51832,-5.488252 -3.57187,-5.55625 z"
         style="opacity:1;fill:#050505"
         id="path37" />
      <path
         d="m 39.355221,12.734623 c -3.004303,-0.03475 -5.939545,0.706066 -8.805148,2.22312 -10.596827,6.051815 -17.167489,15.091833 -19.711458,27.119792 -0.909373,5.126038 -0.02752,9.888537 2.645833,14.2875 4.051036,4.494477 9.033933,5.949685 14.948959,4.365625 7.296944,-2.702719 13.426281,-7.068344 18.388541,-13.096875 -0.517789,2.090738 -0.517789,4.207404 0,6.35 1.894682,4.099983 4.849283,5.026025 8.863542,2.778125 2.375165,-1.7907 4.359539,-3.951287 5.953125,-6.482292 0.08811,1.322917 0.176477,2.645834 0.264583,3.96875 0.402432,1.561836 1.328473,2.66409 2.778125,3.307292 2.65774,0.466196 4.950884,-0.239183 6.879167,-2.116667 4.139406,-4.789752 7.446698,-10.125604 9.921875,-16.007291 0.148431,-0.138113 0.324908,-0.226219 0.529167,-0.264584 0.91731,0.379148 1.843352,0.731838 2.778125,1.058334 -1.507067,2.623343 -2.785798,5.357548 -3.836459,8.202083 -0.398462,1.834356 -0.486569,3.68644 -0.264583,5.55625 0.452702,1.827477 1.555221,3.106208 3.307292,3.836458 2.08571,0.228336 4.0259,-0.212725 5.820833,-1.322916 2.278327,-1.925638 4.174331,-4.174596 5.688542,-6.746875 0.08811,1.058333 0.176477,2.116666 0.264583,3.175 1.578504,5.129741 4.709585,6.320366 9.392705,3.571875 1.81213,-1.636448 3.44382,-3.444346 4.89479,-5.423959 0.0881,0.970227 0.17648,1.94019 0.26459,2.910417 1.57004,4.112419 4.26005,5.03846 8.06979,2.778125 2.00131,-1.515798 3.67691,-3.323696 5.02708,-5.423958 0.30771,2.426758 1.45442,4.323027 3.43959,5.688541 4.37568,1.687513 8.12403,0.761471 11.24479,-2.778125 1.2692,1.142207 2.72441,1.980142 4.36562,2.513542 6.06955,0.515144 10.69975,-1.822185 13.89063,-7.011458 2.78421,-5.37898 3.225,-10.935229 1.32291,-16.66875 -1.43853,-2.891367 -3.77586,-4.478867 -7.01145,-4.7625 -4.16878,0.552979 -6.28545,2.934229 -6.35,7.14375 2.93158,-0.09948 4.91595,1.223433 5.95312,3.96875 1.18772,4.30186 0.17357,7.962106 -3.04271,10.980208 -1.72323,1.138502 -3.44302,1.182688 -5.15937,0.132292 -1.03585,-2.364582 -0.77126,-4.569354 0.79375,-6.614584 0.23971,-0.593725 0.372,-1.210998 0.39687,-1.852083 -0.0304,-1.341438 -0.7358,-1.95871 -2.11666,-1.852083 0.25664,-1.684338 -0.14023,-3.183732 -1.19063,-4.497917 -2.33944,-1.676135 -4.85299,-1.98464 -7.54062,-0.926042 -3.79704,1.769005 -6.39869,4.635236 -7.80521,8.598959 -0.73263,2.4765 -2.09974,4.549245 -4.10104,6.217708 -0.6911,0.499798 -1.44066,0.896673 -2.24896,1.190625 -0.50059,-0.07329 -0.85328,-0.337873 -1.05834,-0.79375 -0.17647,-1.058333 -0.17647,-2.116667 0,-3.175 1.08056,-3.569229 2.4474,-7.008812 4.10105,-10.31875 -0.0624,-1.077119 -0.59161,-1.826683 -1.5875,-2.248958 -1.39383,-0.282575 -2.71675,-0.106098 -3.96875,0.529166 -1.96057,2.87708 -3.41577,6.007894 -4.36563,9.392709 -1.43245,2.314839 -3.24035,4.299214 -5.42396,5.953125 -2.18784,0.98716 -3.24617,0.281516 -3.175,-2.116667 0.90488,-5.007504 2.44819,-9.814189 4.63021,-14.419792 1.69836,-0.215106 3.41815,-0.347398 5.15938,-0.396875 1.8997,-1.200679 2.73764,-2.92047 2.51354,-5.159375 -0.14843,-0.138112 -0.32491,-0.226218 -0.52917,-0.264583 -1.56871,0.640027 -3.20013,0.992717 -4.89479,1.058333 0.92895,-2.420673 2.07566,-4.713816 3.43958,-6.879166 -0.0643,-0.965994 -0.50535,-1.715559 -1.32291,-2.248959 -2.60403,-1.198562 -4.85299,-0.713581 -6.74688,1.455209 -1.38509,2.637631 -2.66382,5.32765 -3.83646,8.069791 -1.251211,0.07223 -2.486022,0.248444 -3.704163,0.529167 -1.948128,1.026319 -2.609586,2.569898 -1.984375,4.630208 1.274498,-0.732102 2.6416,-0.952764 4.101041,-0.661458 -0.995891,3.163623 -2.098146,6.294437 -3.307291,9.392708 -1.314186,2.550055 -3.033977,4.799013 -5.159375,6.746875 -0.820473,0.622036 -1.70233,0.754327 -2.645834,0.396875 -0.627591,-1.185598 -0.671777,-2.420408 -0.132291,-3.704166 1.278995,-2.914121 2.954866,-5.559954 5.027083,-7.9375 0.176477,-0.35269 0.176477,-0.705644 0,-1.058334 -1.147763,-2.492904 -2.955925,-3.154362 -5.423958,-1.984375 -1.234811,0.176477 -2.469357,0.176477 -3.704167,0 -0.608013,-0.908314 -0.563827,-1.834356 0.132292,-2.778125 0.377295,-1.390914 0.06853,-2.581539 -0.926042,-3.571875 -2.026179,-0.828675 -3.745971,-0.4318 -5.159375,1.190625 -1.398058,2.539207 -1.177396,4.920457 0.661458,7.14375 -1.139296,2.631546 -2.418027,5.189009 -3.836458,7.672917 -1.1811,1.877483 -2.636308,3.508904 -4.365625,4.894792 -1.94019,0.742156 -2.73394,0.03651 -2.38125,-2.116667 0.314325,-2.790296 1.328473,-5.303837 3.042708,-7.540625 0.313002,-0.998538 0.09234,-1.836473 -0.661458,-2.513542 -1.436952,-0.550333 -2.847975,-0.506148 -4.233333,0.132292 -0.853282,0.453231 -1.603111,1.070504 -2.248959,1.852083 -1.058069,3.572405 -2.954073,6.615113 -5.688541,9.128125 -0.740305,0.458788 -1.534055,0.767557 -2.38125,0.926042 -0.638175,0.02487 -1.123157,-0.239712 -1.455209,-0.79375 -0.599016,-5.11175 1.120775,-9.300898 5.159375,-12.567708 1.457854,-1.131359 2.913063,-1.17528 4.365625,-0.132292 0.318029,0.575998 0.450321,1.193535 0.396875,1.852083 0.624682,-0.04604 1.241954,-0.134143 1.852084,-0.264583 1.615016,-1.780117 1.703387,-3.6322 0.264583,-5.55625 -1.960563,-1.478756 -4.1656,-1.964002 -6.614583,-1.455208 -1.777207,0.579966 -3.453077,1.373716 -5.027084,2.38125 -3.072606,3.425296 -6.335712,6.688402 -9.789583,9.789583 -3.512079,3.167856 -7.568935,5.372629 -12.170833,6.614583 -4.15343,1.055423 -7.548827,-0.04709 -10.186459,-3.307291 -1.506537,-3.122348 -1.859491,-6.385719 -1.058333,-9.789584 1.425575,-4.504266 3.630348,-8.561122 6.614583,-12.170833 2.658004,-3.278452 5.965296,-5.615517 9.921875,-7.011458 3.393282,-0.832909 5.024967,0.446087 4.894792,3.836458 -0.833438,2.503488 -2.288646,4.576233 -4.365625,6.217708 -1.210998,0.922338 -2.533915,1.275027 -3.96875,1.058334 -1.693598,2.570691 -1.340908,4.775464 1.058333,6.614583 2.091532,0.603515 4.120092,0.427302 6.085417,-0.529167 3.472127,-2.484966 5.809192,-5.792258 7.011458,-9.921875 1.598348,-5.002477 0.14314,-8.750829 -4.365625,-11.244791 -1.852513,-0.579537 -3.679771,-0.879354 -5.482352,-0.900204 z m 96.499019,25.903329 c 1.42716,0.106098 2.13281,0.899848 2.11667,2.38125 -0.15187,0.54901 -0.46064,0.99007 -0.92605,1.322916 -1.70788,-0.850371 -2.10476,-2.085181 -1.19062,-3.704166 z m -3.43958,2.116666 c 0.28628,2.373842 1.52109,4.093634 3.70416,5.159375 0.38471,2.79453 -0.80592,4.602692 -3.57187,5.423959 -0.77338,-0.07805 -1.39092,-0.431007 -1.85209,-1.058334 -0.86518,-2.024327 -0.86518,-4.052887 0,-6.085416 0.5768,-1.153584 1.15015,-2.300023 1.7198,-3.439584 z"
         style="opacity:1;fill:#030303"
         id="path30" />
    </g>
  </g>
</svg>
