<?xml version="1.0" encoding="UTF-8" standalone="no"?>
<!-- Created with Inkscape (http://www.inkscape.org/) -->

<svg
   width="1080"
   height="2400"
   viewBox="0 0 135 300"
   version="1.1"
   id="svg1"
   inkscape:version="1.4.3 (0d15f75, 2025-12-25)"
   sodipodi:docname="splash_screen.svg"
   xmlns:inkscape="http://www.inkscape.org/namespaces/inkscape"
   xmlns:sodipodi="http://sodipodi.sourceforge.net/DTD/sodipodi-0.dtd"
   xmlns="http://www.w3.org/2000/svg"
   xmlns:svg="http://www.w3.org/2000/svg">
  <sodipodi:namedview
     id="namedview1"
     pagecolor="#ffffff"
     bordercolor="#000000"
     borderopacity="0.25"
     inkscape:showpageshadow="2"
     inkscape:pageopacity="0.0"
     inkscape:pagecheckerboard="0"
     inkscape:deskcolor="#d1d1d1"
     inkscape:document-units="mm"
     showguides="false"
     showgrid="false"
     inkscape:zoom="0.25"
     inkscape:cx="148"
     inkscape:cy="1054"
     inkscape:window-width="1920"
     inkscape:window-height="991"
     inkscape:window-x="-9"
     inkscape:window-y="-9"
     inkscape:window-maximized="1"
     inkscape:current-layer="layer4">
    <sodipodi:guide
       position="0,264.42482"
       orientation="-1,0"
       id="guide1"
       inkscape:locked="false"
       inkscape:label=""
       inkscape:color="rgb(0,134,229)" />
    <sodipodi:guide
       position="285.75,160.09867"
       orientation="-1,0"
       id="guide4"
       inkscape:locked="false"
       inkscape:label=""
       inkscape:color="rgb(0,134,229)" />
    <sodipodi:guide
       position="162.23949,100"
       orientation="0,1"
       id="guide5"
       inkscape:locked="false"
       inkscape:label=""
       inkscape:color="rgb(0,134,229)" />
    <sodipodi:guide
       position="165.31998,50"
       orientation="0,1"
       id="guide6"
       inkscape:locked="false"
       inkscape:label=""
       inkscape:color="rgb(0,134,229)" />
    <sodipodi:guide
       position="20.0766,0"
       orientation="0,1"
       id="guide7"
       inkscape:locked="false"
       inkscape:label=""
       inkscape:color="rgb(0,134,229)" />
    <inkscape:grid
       id="grid7"
       units="px"
       originx="0"
       originy="0"
       spacingx="0.5"
       spacingy="0.5"
       empcolor="#0099e5"
       empopacity="0.30196078"
       color="#0099e5"
       opacity="0.14901961"
       empspacing="5"
       enabled="true"
       visible="false"
       snapvisiblegridlinesonly="true"
       dotted="false" />
    <sodipodi:guide
       position="150.26019,200"
       orientation="0,1"
       id="guide12"
       inkscape:locked="false"
       inkscape:label=""
       inkscape:color="rgb(0,134,229)" />
    <sodipodi:guide
       position="67.5,258.98781"
       orientation="-1,0"
       id="guide13"
       inkscape:locked="false"
       inkscape:label=""
       inkscape:color="rgb(0,134,229)" />
    <sodipodi:guide
       position="33.75,222.5"
       orientation="-1,0"
       id="guide19"
       inkscape:locked="false"
       inkscape:label=""
       inkscape:color="rgb(0,134,229)" />
    <sodipodi:guide
       position="101.25,189"
       orientation="-1,0"
       id="guide20"
       inkscape:locked="false"
       inkscape:label=""
       inkscape:color="rgb(0,134,229)" />
    <sodipodi:guide
       position="137.5,225"
       orientation="0,1"
       id="guide21"
       inkscape:locked="false"
       inkscape:label=""
       inkscape:color="rgb(0,134,229)" />
    <sodipodi:guide
       position="152,175"
       orientation="0,1"
       id="guide22"
       inkscape:locked="false"
       inkscape:label=""
       inkscape:color="rgb(0,134,229)" />
    <sodipodi:guide
       position="30,167.06393"
       orientation="-1,0"
       id="guide37"
       inkscape:locked="false"
       inkscape:label=""
       inkscape:color="rgb(0,134,229)" />
    <sodipodi:guide
       position="105,170.59946"
       orientation="-1,0"
       id="guide38"
       inkscape:locked="false"
       inkscape:label=""
       inkscape:color="rgb(0,134,229)" />
  </sodipodi:namedview>
  <defs
     id="defs1">
    <inkscape:path-effect
       effect="fillet_chamfer"
       id="path-effect45"
       is_visible="true"
       lpeversion="1"
       nodesatellites_param="F,0,0,1,0,1.5,0,1 @ F,0,0,1,0,1.5,0,1 @ F,0,0,1,0,1.5,0,1 @ F,0,0,1,0,1.5,0,1"
       radius="12"
       unit="px"
       method="auto"
       mode="F"
       chamfer_steps="1"
       flexible="false"
       use_knot_distance="true"
       apply_no_radius="true"
       apply_with_radius="true"
       only_selected="false"
       hide_knots="false" />
    <inkscape:path-effect
       effect="fillet_chamfer"
       id="path-effect43"
       is_visible="true"
       lpeversion="1"
       nodesatellites_param="F,0,0,1,0,1.5,0,1 @ F,0,0,1,0,1.5,0,1 @ F,0,0,1,0,1.5,0,1 @ F,0,0,1,0,1.5,0,1"
       radius="12"
       unit="px"
       method="auto"
       mode="F"
       chamfer_steps="1"
       flexible="false"
       use_knot_distance="true"
       apply_no_radius="true"
       apply_with_radius="true"
       only_selected="false"
       hide_knots="false" />
    <inkscape:path-effect
       effect="fillet_chamfer"
       id="path-effect41"
       is_visible="true"
       lpeversion="1"
       nodesatellites_param="F,0,0,1,0,1.5,0,1 @ F,0,0,1,0,1.5,0,1 @ F,0,0,1,0,1.5,0,1 @ F,0,0,1,0,1.5,0,1"
       radius="12"
       unit="px"
       method="auto"
       mode="F"
       chamfer_steps="1"
       flexible="false"
       use_knot_distance="true"
       apply_no_radius="true"
       apply_with_radius="true"
       only_selected="false"
       hide_knots="false" />
    <inkscape:path-effect
       effect="fillet_chamfer"
       id="path-effect31"
       is_visible="true"
       lpeversion="1"
       nodesatellites_param="F,0,0,1,0,1.5,0,1 @ F,0,0,1,0,1.5,0,1 @ F,0,0,1,0,1.5,0,1 @ F,0,0,1,0,1.5,0,1"
       radius="12"
       unit="px"
       method="auto"
       mode="F"
       chamfer_steps="1"
       flexible="false"
       use_knot_distance="true"
       apply_no_radius="true"
       apply_with_radius="true"
       only_selected="false"
       hide_knots="false" />
    <inkscape:path-effect
       effect="fillet_chamfer"
       id="path-effect29"
       is_visible="true"
       lpeversion="1"
       nodesatellites_param="F,0,0,1,0,1.5,0,1 @ F,0,0,1,0,1.5,0,1 @ F,0,0,1,0,1.5,0,1 @ F,0,0,1,0,1.5,0,1"
       radius="12"
       unit="px"
       method="auto"
       mode="F"
       chamfer_steps="1"
       flexible="false"
       use_knot_distance="true"
       apply_no_radius="true"
       apply_with_radius="true"
       only_selected="false"
       hide_knots="false" />
    <inkscape:path-effect
       effect="fillet_chamfer"
       id="path-effect27"
       is_visible="true"
       lpeversion="1"
       nodesatellites_param="F,0,0,1,0,1.5,0,1 @ F,0,0,1,0,1.5,0,1 @ F,0,0,1,0,1.5,0,1 @ F,0,0,1,0,1.5,0,1"
       radius="12"
       unit="px"
       method="auto"
       mode="F"
       chamfer_steps="1"
       flexible="false"
       use_knot_distance="true"
       apply_no_radius="true"
       apply_with_radius="true"
       only_selected="false"
       hide_knots="false" />
    <inkscape:path-effect
       effect="fillet_chamfer"
       id="path-effect24"
       is_visible="true"
       lpeversion="1"
       nodesatellites_param="F,0,0,1,0,1.5,0,1 @ F,0,0,1,0,1.5,0,1 @ F,0,0,1,0,1.5,0,1 @ F,0,0,1,0,1.5,0,1"
       radius="12"
       unit="px"
       method="auto"
       mode="F"
       chamfer_steps="1"
       flexible="false"
       use_knot_distance="true"
       apply_no_radius="true"
       apply_with_radius="true"
       only_selected="false"
       hide_knots="false" />
    <inkscape:path-effect
       effect="fillet_chamfer"
       id="path-effect23"
       is_visible="true"
       lpeversion="1"
       nodesatellites_param="F,0,0,1,0,0,0,1 @ F,0,0,1,0,0,0,1 @ F,0,0,1,0,0,0,1 @ F,0,0,1,0,0,0,1"
       radius="0"
       unit="px"
       method="auto"
       mode="F"
       chamfer_steps="1"
       flexible="false"
       use_knot_distance="true"
       apply_no_radius="true"
       apply_with_radius="true"
       only_selected="false"
       hide_knots="false" />
    <inkscape:path-effect
       effect="fillet_chamfer"
       id="path-effect22"
       is_visible="true"
       lpeversion="1"
       nodesatellites_param="F,0,0,1,0,0,0,1 @ F,0,0,1,0,0,0,1 @ F,0,0,1,0,0,0,1 @ F,0,0,1,0,0,0,1"
       radius="0"
       unit="px"
       method="auto"
       mode="F"
       chamfer_steps="1"
       flexible="false"
       use_knot_distance="true"
       apply_no_radius="true"
       apply_with_radius="true"
       only_selected="false"
       hide_knots="false" />
    <inkscape:path-effect
       effect="spiro"
       id="path-effect9"
       is_visible="true"
       lpeversion="1" />
    <clipPath
       clipPathUnits="userSpaceOnUse"
       id="clipPath20">
      <ellipse
         style="fill:none;stroke:#000000;stroke-width:1.27187;stroke-opacity:1"
         id="ellipse20"
         cx="255.62984"
         cy="256.22324"
         rx="255.02263"
         ry="255.49098" />
    </clipPath>
    <clipPath
       clipPathUnits="userSpaceOnUse"
       id="clipPath19">
      <ellipse
         style="fill:none;stroke:#000000;stroke-width:1.27187;stroke-opacity:1"
         id="ellipse19"
         cx="255.62984"
         cy="256.22324"
         rx="255.02263"
         ry="255.49098" />
    </clipPath>
    <inkscape:path-effect
       effect="fillet_chamfer"
       id="path-effect24-6"
       is_visible="true"
       lpeversion="1"
       nodesatellites_param="F,0,0,1,0,1.5,0,1 @ F,0,0,1,0,1.5,0,1 @ F,0,0,1,0,1.5,0,1 @ F,0,0,1,0,1.5,0,1"
       radius="12"
       unit="px"
       method="auto"
       mode="F"
       chamfer_steps="1"
       flexible="false"
       use_knot_distance="true"
       apply_no_radius="true"
       apply_with_radius="true"
       only_selected="false"
       hide_knots="false" />
    <inkscape:path-effect
       effect="fillet_chamfer"
       id="path-effect24-6-8"
       is_visible="true"
       lpeversion="1"
       nodesatellites_param="F,0,0,1,0,1.5,0,1 @ F,0,0,1,0,1.5,0,1 @ F,0,0,1,0,1.5,0,1 @ F,0,0,1,0,1.5,0,1"
       radius="12"
       unit="px"
       method="auto"
       mode="F"
       chamfer_steps="1"
       flexible="false"
       use_knot_distance="true"
       apply_no_radius="true"
       apply_with_radius="true"
       only_selected="false"
       hide_knots="false" />
  </defs>
  <g
     inkscape:label="bottom-layer-b"
     inkscape:groupmode="layer"
     id="g10"
     transform="translate(-1.08912,29.76928)">
    <path
       style="fill:#fddb6f;fill-opacity:1;stroke:none;stroke-width:0.125px;stroke-linecap:butt;stroke-linejoin:miter;stroke-opacity:1"
       d="m 1.089441,172.53439 c 0,0 14.589852,-1.82044 21.643559,-1.30623 7.7161,0.56249 15.369411,2.34374 22.722567,4.74909 8.262062,2.70267 15.758214,7.35109 23.745496,10.78175 4.70857,2.0224 9.296037,4.45464 14.247296,5.77592 4.256017,1.13575 15.717415,2.05349 26.706111,-0.92583 9.18848,-2.49123 25.93392,-20.52423 25.93392,-20.52423 v 99.14618 H 1.089441 Z"
       id="path10"
       sodipodi:nodetypes="cssssscccc"
       inkscape:label="bottom-path-b" />
  </g>
  <g
     inkscape:label="bottom-layer-a"
     inkscape:groupmode="layer"
     id="layer1">
    <path
       style="fill:#fdc604;fill-opacity:1;stroke:none;stroke-width:0.125px;stroke-linecap:butt;stroke-linejoin:miter;stroke-opacity:1"
       d="m 1.1449125e-4,237.05945 v 62.94008 l 135.00036550875,0 v -99.14609 c 0,0 -12.38286,12.71244 -19.19072,17.69664 -3.60912,2.64233 -7.47101,5.03811 -11.61728,6.71624 -4.3938,1.77831 -9.06585,3.13566 -13.79552,3.44887 -6.440568,0.42651 -12.873967,-1.1189 -19.24112,-2.17823 -7.762195,-1.29143 -15.214811,-4.38858 -23.05304,-5.08257 -5.971686,-0.52873 -12.078714,-0.38192 -17.97048,0.72609 -5.848395,1.09985 -11.548233,3.16834 -16.88136,5.80864 -4.887795,2.41982 -13.25084550875,9.07033 -13.25084550875,9.07033 z"
       id="path12"
       sodipodi:nodetypes="ccccsssssssc"
       inkscape:label="bottom-path-a" />
  </g>
  <g
     inkscape:groupmode="layer"
     id="layer3"
     inkscape:label="cartio"
     style="display:inline">
    <g
       id="g31"
       inkscape:label="title"
       transform="translate(-1.5026049,-4.8261618)">
      <g
         id="g32"
         style="clip-rule:evenodd;fill-rule:evenodd;image-rendering:optimizeQuality;shape-rendering:geometricPrecision;text-rendering:geometricPrecision"
         transform="matrix(0.125,0,0,0.125,2.873321,47.642902)">
        <path
           style="opacity:1"
           fill="#030303"
           d="m 460.5,861.5 c 5.236,-2.413 10.569,-2.58 16,-0.5 2.849,2.559 3.683,5.726 2.5,9.5 -6.479,8.454 -10.312,17.954 -11.5,28.5 -1.333,8.138 1.667,10.805 9,8 6.536,-5.238 12.036,-11.404 16.5,-18.5 5.361,-9.388 10.194,-19.054 14.5,-29 -6.95,-8.403 -7.784,-17.403 -2.5,-27 5.342,-6.132 11.842,-7.632 19.5,-4.5 3.759,3.743 4.926,8.243 3.5,13.5 -2.631,3.567 -2.798,7.067 -0.5,10.5 4.667,0.667 9.333,0.667 14,0 9.328,-4.422 16.162,-1.922 20.5,7.5 0.667,1.333 0.667,2.667 0,4 -7.832,8.986 -14.166,18.986 -19,30 -2.039,4.852 -1.872,9.519 0.5,14 3.566,1.351 6.899,0.851 10,-1.5 8.033,-7.362 14.533,-15.862 19.5,-25.5 4.57,-11.71 8.736,-23.543 12.5,-35.5 -5.516,-1.101 -10.683,-0.267 -15.5,2.5 -2.363,-7.787 0.137,-13.621 7.5,-17.5 4.604,-1.061 9.271,-1.727 14,-2 4.432,-10.364 9.265,-20.531 14.5,-30.5 7.158,-8.197 15.658,-10.03 25.5,-5.5 3.09,2.016 4.757,4.849 5,8.5 -5.155,8.184 -9.489,16.851 -13,26 6.405,-0.248 12.571,-1.581 18.5,-4 0.772,0.145 1.439,0.478 2,1 0.847,8.462 -2.32,14.962 -9.5,19.5 -6.581,0.187 -13.081,0.687 -19.5,1.5 -8.247,17.407 -14.08,35.574 -17.5,54.5 -0.269,9.064 3.731,11.731 12,8 8.253,-6.251 15.086,-13.751 20.5,-22.5 3.59,-12.793 9.09,-24.626 16.5,-35.5 4.732,-2.401 9.732,-3.068 15,-2 3.764,1.596 5.764,4.429 6,8.5 -6.25,12.51 -11.416,25.51 -15.5,39 -0.667,4 -0.667,8 0,12 0.775,1.723 2.108,2.723 4,3 3.055,-1.111 5.888,-2.611 8.5,-4.5 7.564,-6.306 12.731,-14.14 15.5,-23.5 5.316,-14.981 15.149,-25.814 29.5,-32.5 10.158,-4.001 19.658,-2.835 28.5,3.5 3.97,4.967 5.47,10.634 4.5,17 5.219,-0.403 7.885,1.93 8,7 -0.094,2.423 -0.594,4.756 -1.5,7 -5.915,7.73 -6.915,16.063 -3,25 6.487,3.97 12.987,3.803 19.5,-0.5 12.156,-11.407 15.989,-25.241 11.5,-41.5 -3.92,-10.376 -11.42,-15.376 -22.5,-15 0.244,-15.91 8.244,-24.91 24,-27 12.229,1.072 21.063,7.072 26.5,18 7.189,21.67 5.523,42.67 -5,63 -12.06,19.613 -29.56,28.447 -52.5,26.5 -6.203,-2.016 -11.703,-5.183 -16.5,-9.5 -11.795,13.378 -25.962,16.878 -42.5,10.5 -7.503,-5.161 -11.837,-12.328 -13,-21.5 -5.103,7.938 -11.436,14.771 -19,20.5 -14.399,8.543 -24.566,5.043 -30.5,-10.5 -0.333,-3.667 -0.667,-7.333 -1,-11 -5.484,7.482 -11.651,14.315 -18.5,20.5 -17.7,10.388 -29.534,5.888 -35.5,-13.5 -0.333,-4 -0.667,-8 -1,-12 -5.723,9.722 -12.889,18.222 -21.5,25.5 -6.784,4.196 -14.117,5.863 -22,5 -6.622,-2.76 -10.789,-7.593 -12.5,-14.5 -0.839,-7.067 -0.506,-14.067 1,-21 3.971,-10.751 8.804,-21.085 14.5,-31 -3.533,-1.234 -7.033,-2.567 -10.5,-4 -0.772,0.145 -1.439,0.478 -2,1 -9.355,22.23 -21.855,42.397 -37.5,60.5 -7.288,7.096 -15.955,9.762 -26,8 -5.479,-2.431 -8.979,-6.597 -10.5,-12.5 -0.333,-5 -0.667,-10 -1,-15 -6.023,9.566 -13.523,17.732 -22.5,24.5 -15.172,8.496 -26.339,4.996 -33.5,-10.5 -1.957,-8.098 -1.957,-16.098 0,-24 -18.755,22.785 -41.921,39.285 -69.5,49.5 -22.356,5.987 -41.189,0.487 -56.5,-16.5 -10.104,-16.626 -13.437,-34.626 -10,-54 9.615,-45.46 34.449,-79.627 74.5,-102.5 17.329,-9.174 35.329,-10.841 54,-5 17.041,9.426 22.541,23.593 16.5,42.5 -4.544,15.608 -13.377,28.108 -26.5,37.5 -7.428,3.615 -15.095,4.281 -23,2 -9.068,-6.951 -10.401,-15.284 -4,-25 5.423,0.819 10.423,-0.514 15,-4 7.85,-6.204 13.35,-14.038 16.5,-23.5 0.492,-12.814 -5.675,-17.648 -18.5,-14.5 -14.954,5.276 -27.454,14.109 -37.5,26.5 -11.279,13.643 -19.612,28.976 -25,46 -3.028,12.865 -1.694,25.199 4,37 9.969,12.322 22.802,16.489 38.5,12.5 17.393,-4.694 32.726,-13.027 46,-25 13.054,-11.721 25.387,-24.054 37,-37 5.949,-3.808 12.283,-6.808 19,-9 9.256,-1.923 17.59,-0.089 25,5.5 5.438,7.272 5.104,14.272 -1,21 z"
           id="path32" />
      </g>
      <g
         id="g33"
         style="clip-rule:evenodd;fill-rule:evenodd;image-rendering:optimizeQuality;shape-rendering:geometricPrecision;text-rendering:geometricPrecision"
         transform="matrix(0.125,0,0,0.125,2.873321,47.642902)">
        <path
           style="opacity:1"
           fill="#050505"
           d="m 667.5,808.5 c 15.459,0.257 19.959,7.257 13.5,21 -4.987,7.328 -11.82,10.161 -20.5,8.5 -6.941,-6.367 -7.775,-13.534 -2.5,-21.5 2.772,-3.283 5.939,-5.95 9.5,-8 z"
           id="path33" />
      </g>
      <g
         id="g34"
         style="clip-rule:evenodd;fill-rule:evenodd;image-rendering:optimizeQuality;shape-rendering:geometricPrecision;text-rendering:geometricPrecision"
         transform="matrix(0.125,0,0,0.125,2.873321,47.642902)">
        <path
           style="opacity:1"
           fill="#f4f4f4"
           d="m 460.5,861.5 c -3.225,1.713 -6.059,4.046 -8.5,7 -3.999,13.502 -11.165,25.002 -21.5,34.5 -2.798,1.734 -5.798,2.901 -9,3.5 -2.412,0.094 -4.245,-0.906 -5.5,-3 -2.264,-19.32 4.236,-35.153 19.5,-47.5 5.51,-4.276 11.01,-4.442 16.5,-0.5 1.202,2.177 1.702,4.511 1.5,7 2.361,-0.174 4.694,-0.507 7,-1 z"
           id="path34" />
      </g>
      <g
         id="g35"
         style="clip-rule:evenodd;fill-rule:evenodd;image-rendering:optimizeQuality;shape-rendering:geometricPrecision;text-rendering:geometricPrecision"
         transform="matrix(0.125,0,0,0.125,2.873321,47.642902)">
        <path
           style="opacity:1"
           fill="#e6e6e6"
           d="m 722.5,863.5 c 5.394,0.401 8.061,3.401 8,9 -0.574,2.075 -1.741,3.742 -3.5,5 -6.455,-3.214 -7.955,-7.881 -4.5,-14 z"
           id="path35" />
      </g>
      <g
         id="g36"
         style="clip-rule:evenodd;fill-rule:evenodd;image-rendering:optimizeQuality;shape-rendering:geometricPrecision;text-rendering:geometricPrecision"
         transform="matrix(0.125,0,0,0.125,2.873321,47.642902)">
        <path
           style="opacity:1"
           fill="#f1f1f1"
           d="m 709.5,871.5 c 1.082,8.972 5.749,15.472 14,19.5 1.454,10.562 -3.046,17.396 -13.5,20.5 -2.923,-0.295 -5.257,-1.629 -7,-4 -3.27,-7.651 -3.27,-15.318 0,-23 2.18,-4.36 4.347,-8.693 6.5,-13 z"
           id="path36" />
      </g>
    </g>
  </g>
  <g
     inkscape:groupmode="layer"
     id="layer4"
     inkscape:label="sparkle"
     style="display:inline">
    <g
       id="g37"
       transform="translate(-0.75)">
      <path
         style="fill:#fdc604;fill-opacity:1;stroke:none;stroke-width:0.125"
         id="rect23"
         width="10.34375"
         height="3.59375"
         x="30.1875"
         y="73.59375"
         inkscape:path-effect="#path-effect24"
         sodipodi:type="rect"
         d="m 31.6875,73.59375 h 7.34375 a 1.5,1.5 45 0 1 1.5,1.5 v 0.59375 a 1.5,1.5 135 0 1 -1.5,1.5 H 31.6875 a 1.5,1.5 45 0 1 -1.5,-1.5 v -0.59375 a 1.5,1.5 135 0 1 1.5,-1.5 z"
         transform="rotate(35,9.7189684,67.38124)" />
      <path
         style="display:inline;fill:#fdc604;fill-opacity:1;stroke:none;stroke-width:0.125"
         id="rect23-7"
         width="10.34375"
         height="3.59375"
         x="30.1875"
         y="73.59375"
         inkscape:path-effect="#path-effect24-6"
         sodipodi:type="rect"
         d="m 31.6875,73.59375 h 7.34375 a 1.5,1.5 45 0 1 1.5,1.5 v 0.59375 a 1.5,1.5 135 0 1 -1.5,1.5 H 31.6875 a 1.5,1.5 45 0 1 -1.5,-1.5 v -0.59375 a 1.5,1.5 135 0 1 1.5,-1.5 z"
         transform="rotate(-35,88.168305,108.13498)" />
      <path
         style="display:inline;fill:#fdc604;fill-opacity:1;stroke:none;stroke-width:0.125"
         id="rect23-7-7"
         width="10.34375"
         height="3.59375"
         x="30.1875"
         y="73.59375"
         inkscape:path-effect="#path-effect24-6-8"
         sodipodi:type="rect"
         d="m 31.6875,73.59375 h 7.34375 a 1.5,1.5 45 0 1 1.5,1.5 v 0.59375 a 1.5,1.5 135 0 1 -1.5,1.5 H 31.6875 a 1.5,1.5 45 0 1 -1.5,-1.5 v -0.59375 a 1.5,1.5 135 0 1 1.5,-1.5 z"
         transform="translate(-12.231011,24.734981)" />
    </g>
    <g
       id="g40"
       transform="matrix(-1,0,0,1,136.76296,0)">
      <path
         style="fill:#fdc604;fill-opacity:1;stroke:none;stroke-width:0.125"
         id="path38"
         width="10.34375"
         height="3.59375"
         x="30.1875"
         y="73.59375"
         inkscape:path-effect="#path-effect41"
         sodipodi:type="rect"
         d="m 31.6875,73.59375 h 7.34375 a 1.5,1.5 45 0 1 1.5,1.5 v 0.59375 a 1.5,1.5 135 0 1 -1.5,1.5 H 31.6875 a 1.5,1.5 45 0 1 -1.5,-1.5 v -0.59375 a 1.5,1.5 135 0 1 1.5,-1.5 z"
         transform="rotate(35,9.7189684,67.38124)" />
      <path
         style="display:inline;fill:#fdc604;fill-opacity:1;stroke:none;stroke-width:0.125"
         id="path39"
         width="10.34375"
         height="3.59375"
         x="30.1875"
         y="73.59375"
         inkscape:path-effect="#path-effect43"
         sodipodi:type="rect"
         d="m 31.6875,73.59375 h 7.34375 a 1.5,1.5 45 0 1 1.5,1.5 v 0.59375 a 1.5,1.5 135 0 1 -1.5,1.5 H 31.6875 a 1.5,1.5 45 0 1 -1.5,-1.5 v -0.59375 a 1.5,1.5 135 0 1 1.5,-1.5 z"
         transform="rotate(-35,88.168305,108.13498)" />
      <path
         style="display:inline;fill:#fdc604;fill-opacity:1;stroke:none;stroke-width:0.125"
         id="path40"
         width="10.34375"
         height="3.59375"
         x="30.1875"
         y="73.59375"
         inkscape:path-effect="#path-effect45"
         sodipodi:type="rect"
         d="m 31.6875,73.59375 h 7.34375 a 1.5,1.5 45 0 1 1.5,1.5 v 0.59375 a 1.5,1.5 135 0 1 -1.5,1.5 H 31.6875 a 1.5,1.5 45 0 1 -1.5,-1.5 v -0.59375 a 1.5,1.5 135 0 1 1.5,-1.5 z"
         transform="translate(-12.231011,24.734981)" />
    </g>
  </g>
  <g
     inkscape:groupmode="layer"
     id="layer5"
     inkscape:label="icon"
     style="display:inline"
     sodipodi:insensitive="true">
    <g
       id="g19"
       inkscape:label="cartio-icon"
       transform="translate(163.99717,40.077016)">
      <g
         id="g1"
         clip-path="url(#clipPath20)"
         style="clip-rule:evenodd;fill-rule:evenodd;image-rendering:optimizeQuality;shape-rendering:geometricPrecision;text-rendering:geometricPrecision"
         transform="matrix(0.125,0,0,0.125,-128.4509,27.783468)">
        <path
           style="opacity:1"
           fill="#f9d900"
           d="m -0.5,-0.5 c 170.667,0 341.333,0 512,0 0,84.6667 0,169.333 0,254 -30,-29.667 -60,-59.333 -90,-89 -47.83,-0.999 -95.83,-1.332 -144,-1 -34.667,0 -69.333,0 -104,0 -12.694,-13.027 -25.361,-26.027 -38,-39 -15.825,-0.996 -31.825,-1.33 -48,-1 -0.3245,7.187 0.0088,14.187 1,21 11.3333,12 23,23.667 35,35 10.421,65.704 21.088,131.371 32,197 6.092,6.084 11.759,12.418 17,19 1.335,6.991 5.002,12.325 11,16 32.952,33.286 65.952,66.619 99,100 -94.333,0 -188.6667,0 -283,0 0,-170.667 0,-341.333 0,-512 z"
           id="path1" />
      </g>
      <g
         id="g2"
         style="clip-rule:evenodd;fill-rule:evenodd;image-rendering:optimizeQuality;shape-rendering:geometricPrecision;text-rendering:geometricPrecision"
         transform="matrix(0.125,0,0,0.125,-128.4509,27.783468)">
        <path
           style="opacity:1"
           fill="#64844d"
           d="m 135.5,124.5 c -15.667,0 -31.333,0 -47,0 0,6.333 0,12.667 0,19 10.1806,-0.327 20.181,0.006 30,1 -10,0 -20,0 -30,0 -0.9912,-6.813 -1.3245,-13.813 -1,-21 16.175,-0.33 32.175,0.004 48,1 z"
           id="path2" />
      </g>
      <g
         id="g3"
         style="clip-rule:evenodd;fill-rule:evenodd;image-rendering:optimizeQuality;shape-rendering:geometricPrecision;text-rendering:geometricPrecision"
         transform="matrix(0.125,0,0,0.125,-128.4509,27.783468)">
        <path
           style="opacity:1"
           fill="#02577c"
           d="m 135.5,124.5 c 2.109,12.984 4.109,25.984 6,39 8.586,55.693 17.253,111.36 26,167 -0.237,1.291 0.096,2.291 1,3 0.754,7.701 1.754,15.368 3,23 35.333,0 70.667,0 106,0 0,6.667 0,13.333 0,20 -20.333,0 -40.667,0 -61,0 -13.333,0 -26.667,0 -40,0 -7,0 -14,0 -21,0 -10.912,-65.629 -21.579,-131.296 -32,-197 -1.421,-11.703 -3.088,-23.369 -5,-35 -9.819,-0.994 -19.8194,-1.327 -30,-1 0,-6.333 0,-12.667 0,-19 15.667,0 31.333,0 47,0 z"
           id="path3" />
      </g>
      <g
         id="g4"
         style="clip-rule:evenodd;fill-rule:evenodd;image-rendering:optimizeQuality;shape-rendering:geometricPrecision;text-rendering:geometricPrecision"
         transform="matrix(0.125,0,0,0.125,-128.4509,27.783468)">
        <path
           style="opacity:1"
           fill="#f8ba01"
           d="m 135.5,124.5 c 12.639,12.973 25.306,25.973 38,39 -10.667,0 -21.333,0 -32,0 -1.891,-13.016 -3.891,-26.016 -6,-39 z"
           id="path4" />
      </g>
      <g
         id="g5"
         style="clip-rule:evenodd;fill-rule:evenodd;image-rendering:optimizeQuality;shape-rendering:geometricPrecision;text-rendering:geometricPrecision"
         transform="matrix(0.125,0,0,0.125,-128.4509,27.783468)">
        <path
           style="opacity:1"
           fill="#f6ba05"
           d="m 88.5,144.5 c 10,0 20,0 30,0 1.912,11.631 3.579,23.297 5,35 -12,-11.333 -23.6667,-23 -35,-35 z"
           id="path5" />
      </g>
      <g
         id="g6"
         style="clip-rule:evenodd;fill-rule:evenodd;image-rendering:optimizeQuality;shape-rendering:geometricPrecision;text-rendering:geometricPrecision"
         transform="matrix(0.125,0,0,0.125,-128.4509,27.783468)">
        <path
           style="opacity:1"
           fill="#2b8988"
           d="m 277.5,164.5 c 0,-0.333 0,-0.667 0,-1 48.17,-0.332 96.17,0.001 144,1 0.172,0.992 -0.162,1.658 -1,2 -47.322,-1.995 -94.988,-2.662 -143,-2 z"
           id="path6" />
      </g>
      <g
         id="g7"
         style="clip-rule:evenodd;fill-rule:evenodd;image-rendering:optimizeQuality;shape-rendering:geometricPrecision;text-rendering:geometricPrecision"
         transform="matrix(0.125,0,0,0.125,-128.4509,27.783468)">
        <path
           style="opacity:1"
           fill="#0189c0"
           d="m 141.5,163.5 c 10.667,0 21.333,0 32,0 34.667,0 69.333,0 104,0 0,0.333 0,0.667 0,1 0,55.333 0,110.667 0,166 -36.667,0 -73.333,0 -110,0 -8.747,-55.64 -17.414,-111.307 -26,-167 z"
           id="path7" />
      </g>
      <g
         id="g8"
         style="clip-rule:evenodd;fill-rule:evenodd;image-rendering:optimizeQuality;shape-rendering:geometricPrecision;text-rendering:geometricPrecision"
         transform="matrix(0.125,0,0,0.125,-128.4509,27.783468)">
        <path
           style="opacity:1"
           fill="#0070a2"
           d="m 277.5,164.5 c 48.012,-0.662 95.678,0.005 143,2 -6.681,54.77 -14.015,109.436 -22,164 -40.333,0 -80.667,0 -121,0 0,-55.333 0,-110.667 0,-166 z"
           id="path8" />
      </g>
      <g
         id="g9"
         clip-path="url(#clipPath19)"
         style="clip-rule:evenodd;fill-rule:evenodd;image-rendering:optimizeQuality;shape-rendering:geometricPrecision;text-rendering:geometricPrecision"
         transform="matrix(0.125,0,0,0.125,-128.4509,27.783468)">
        <path
           style="opacity:1"
           fill="#f9ba00"
           d="m 421.5,164.5 c 30,29.667 60,59.333 90,89 0,86 0,172 0,258 -76.333,0 -152.667,0 -229,0 -33.048,-33.381 -66.048,-66.714 -99,-100 12.359,6.734 23.192,4.734 32.5,-6 5.78,-9.645 5.947,-19.311 0.5,-29 20.333,0 40.667,0 61,0 19.667,0 39.333,0 59,0 -7.302,11.49 -6.302,22.324 3,32.5 13.15,9.532 25.317,8.365 36.5,-3.5 5.78,-9.645 5.947,-19.311 0.5,-29 6.333,0 12.667,0 19,0 0,-6.667 0,-13.333 0,-20 -39.333,0 -78.667,0 -118,0 -35.333,0 -70.667,0 -106,0 -1.246,-7.632 -2.246,-15.299 -3,-23 76.495,-1.666 153.161,-2.666 230,-3 7.985,-54.564 15.319,-109.23 22,-164 0.838,-0.342 1.172,-1.008 1,-2 z"
           id="path9" />
      </g>
      <g
         id="g10-2"
         style="clip-rule:evenodd;fill-rule:evenodd;image-rendering:optimizeQuality;shape-rendering:geometricPrecision;text-rendering:geometricPrecision"
         transform="matrix(0.125,0,0,0.125,-128.4509,27.783468)">
        <path
           style="opacity:1"
           fill="#00b4f9"
           d="m 167.5,188.5 c 9.667,0 19.333,0 29,0 3.214,39.021 6.547,78.021 10,117 -8.333,0 -16.667,0 -25,0 -4.787,-38.988 -9.453,-77.988 -14,-117 z"
           id="path10-3" />
      </g>
      <g
         id="g11"
         style="clip-rule:evenodd;fill-rule:evenodd;image-rendering:optimizeQuality;shape-rendering:geometricPrecision;text-rendering:geometricPrecision"
         transform="matrix(0.125,0,0,0.125,-128.4509,27.783468)">
        <path
           style="opacity:1"
           fill="#00b4f9"
           d="m 229.5,188.5 c 9,0 18,0 27,0 1.141,38.996 2.141,77.996 3,117 -7.667,0 -15.333,0 -23,0 -1.628,-39.047 -3.961,-78.047 -7,-117 z"
           id="path11" />
      </g>
      <g
         id="g12"
         style="clip-rule:evenodd;fill-rule:evenodd;image-rendering:optimizeQuality;shape-rendering:geometricPrecision;text-rendering:geometricPrecision"
         transform="matrix(0.125,0,0,0.125,-128.4509,27.783468)">
        <path
           style="opacity:1"
           fill="#0088c0"
           d="m 299.5,188.5 c 9,0 18,0 27,0 -3.154,38.948 -5.487,77.948 -7,117 -7.667,0 -15.333,0 -23,0 0.778,-39.006 1.778,-78.006 3,-117 z"
           id="path12-2" />
      </g>
      <g
         id="g13"
         style="clip-rule:evenodd;fill-rule:evenodd;image-rendering:optimizeQuality;shape-rendering:geometricPrecision;text-rendering:geometricPrecision"
         transform="matrix(0.125,0,0,0.125,-128.4509,27.783468)">
        <path
           style="opacity:1"
           fill="#0088c0"
           d="m 359.5,188.5 c 9.667,0 19.333,0 29,0 -4.667,38.999 -9.333,77.999 -14,117 -8.667,0 -17.333,0 -26,0 3.864,-38.977 7.531,-77.977 11,-117 z"
           id="path13" />
      </g>
      <g
         id="g14"
         style="clip-rule:evenodd;fill-rule:evenodd;image-rendering:optimizeQuality;shape-rendering:geometricPrecision;text-rendering:geometricPrecision"
         transform="matrix(0.125,0,0,0.125,-128.4509,27.783468)">
        <path
           style="opacity:1"
           fill="#ccb01f"
           d="m 167.5,330.5 c 36.667,0 73.333,0 110,0 40.333,0 80.667,0 121,0 -76.839,0.334 -153.505,1.334 -230,3 -0.904,-0.709 -1.237,-1.709 -1,-3 z"
           id="path14" />
      </g>
      <g
         id="g15"
         style="clip-rule:evenodd;fill-rule:evenodd;image-rendering:optimizeQuality;shape-rendering:geometricPrecision;text-rendering:geometricPrecision"
         transform="matrix(0.125,0,0,0.125,-128.4509,27.783468)">
        <path
           style="opacity:1"
           fill="#00253e"
           d="m 277.5,356.5 c 39.333,0 78.667,0 118,0 0,6.667 0,13.333 0,20 -6.333,0 -12.667,0 -19,0 -13.333,0 -26.667,0 -40,0 -19.667,0 -39.333,0 -59,0 0,-6.667 0,-13.333 0,-20 z"
           id="path15" />
      </g>
      <g
         id="g16"
         style="clip-rule:evenodd;fill-rule:evenodd;image-rendering:optimizeQuality;shape-rendering:geometricPrecision;text-rendering:geometricPrecision"
         transform="matrix(0.125,0,0,0.125,-128.4509,27.783468)">
        <path
           style="opacity:1"
           fill="#f1b604"
           d="m 155.5,376.5 c 7,0 14,0 21,0 -3.575,5.754 -4.909,12.088 -4,19 -5.241,-6.582 -10.908,-12.916 -17,-19 z"
           id="path16" />
      </g>
      <g
         id="g17"
         style="clip-rule:evenodd;fill-rule:evenodd;image-rendering:optimizeQuality;shape-rendering:geometricPrecision;text-rendering:geometricPrecision"
         transform="matrix(0.125,0,0,0.125,-128.4509,27.783468)">
        <path
           style="opacity:1"
           fill="#03253d"
           d="m 176.5,376.5 c 13.333,0 26.667,0 40,0 5.447,9.689 5.28,19.355 -0.5,29 -9.308,10.734 -20.141,12.734 -32.5,6 -5.998,-3.675 -9.665,-9.009 -11,-16 -0.909,-6.912 0.425,-13.246 4,-19 z"
           id="path17" />
      </g>
      <g
         id="g18"
         style="clip-rule:evenodd;fill-rule:evenodd;image-rendering:optimizeQuality;shape-rendering:geometricPrecision;text-rendering:geometricPrecision"
         transform="matrix(0.125,0,0,0.125,-128.4509,27.783468)">
        <path
           style="opacity:1"
           fill="#041319"
           d="m 336.5,376.5 c 13.333,0 26.667,0 40,0 5.447,9.689 5.28,19.355 -0.5,29 -11.183,11.865 -23.35,13.032 -36.5,3.5 -9.302,-10.176 -10.302,-21.01 -3,-32.5 z"
           id="path18" />
      </g>
    </g>
  </g>
</svg>
