<?xml version="1.0" encoding="UTF-8"?>
<!DOCTYPE svg PUBLIC "-//W3C//DTD SVG 1.1//EN" "http://www.w3.org/Graphics/SVG/1.1/DTD/svg11.dtd">
<svg xmlns="http://www.w3.org/2000/svg" version="1.1" width="512px" height="512px" style="shape-rendering:geometricPrecision; text-rendering:geometricPrecision; image-rendering:optimizeQuality; fill-rule:evenodd; clip-rule:evenodd" xmlns:xlink="http://www.w3.org/1999/xlink">
<g><path style="opacity:1" fill="#f9d900" d="M -0.5,-0.5 C 170.167,-0.5 340.833,-0.5 511.5,-0.5C 511.5,84.1667 511.5,168.833 511.5,253.5C 481.5,223.833 451.5,194.167 421.5,164.5C 373.67,163.501 325.67,163.168 277.5,163.5C 242.833,163.5 208.167,163.5 173.5,163.5C 160.806,150.473 148.139,137.473 135.5,124.5C 119.675,123.504 103.675,123.17 87.5,123.5C 87.1755,130.687 87.5088,137.687 88.5,144.5C 99.8333,156.5 111.5,168.167 123.5,179.5C 133.921,245.204 144.588,310.871 155.5,376.5C 161.592,382.584 167.259,388.918 172.5,395.5C 173.835,402.491 177.502,407.825 183.5,411.5C 216.452,444.786 249.452,478.119 282.5,511.5C 188.167,511.5 93.8333,511.5 -0.5,511.5C -0.5,340.833 -0.5,170.167 -0.5,-0.5 Z"/></g>
<g><path style="opacity:1" fill="#64844d" d="M 135.5,124.5 C 119.833,124.5 104.167,124.5 88.5,124.5C 88.5,130.833 88.5,137.167 88.5,143.5C 98.6806,143.173 108.681,143.506 118.5,144.5C 108.5,144.5 98.5,144.5 88.5,144.5C 87.5088,137.687 87.1755,130.687 87.5,123.5C 103.675,123.17 119.675,123.504 135.5,124.5 Z"/></g>
<g><path style="opacity:1" fill="#02577c" d="M 135.5,124.5 C 137.609,137.484 139.609,150.484 141.5,163.5C 150.086,219.193 158.753,274.86 167.5,330.5C 167.263,331.791 167.596,332.791 168.5,333.5C 169.254,341.201 170.254,348.868 171.5,356.5C 206.833,356.5 242.167,356.5 277.5,356.5C 277.5,363.167 277.5,369.833 277.5,376.5C 257.167,376.5 236.833,376.5 216.5,376.5C 203.167,376.5 189.833,376.5 176.5,376.5C 169.5,376.5 162.5,376.5 155.5,376.5C 144.588,310.871 133.921,245.204 123.5,179.5C 122.079,167.797 120.412,156.131 118.5,144.5C 108.681,143.506 98.6806,143.173 88.5,143.5C 88.5,137.167 88.5,130.833 88.5,124.5C 104.167,124.5 119.833,124.5 135.5,124.5 Z"/></g>
<g><path style="opacity:1" fill="#f8ba01" d="M 135.5,124.5 C 148.139,137.473 160.806,150.473 173.5,163.5C 162.833,163.5 152.167,163.5 141.5,163.5C 139.609,150.484 137.609,137.484 135.5,124.5 Z"/></g>
<g><path style="opacity:1" fill="#f6ba05" d="M 88.5,144.5 C 98.5,144.5 108.5,144.5 118.5,144.5C 120.412,156.131 122.079,167.797 123.5,179.5C 111.5,168.167 99.8333,156.5 88.5,144.5 Z"/></g>
<g><path style="opacity:1" fill="#2b8988" d="M 277.5,164.5 C 277.5,164.167 277.5,163.833 277.5,163.5C 325.67,163.168 373.67,163.501 421.5,164.5C 421.672,165.492 421.338,166.158 420.5,166.5C 373.178,164.505 325.512,163.838 277.5,164.5 Z"/></g>
<g><path style="opacity:1" fill="#0189c0" d="M 141.5,163.5 C 152.167,163.5 162.833,163.5 173.5,163.5C 208.167,163.5 242.833,163.5 277.5,163.5C 277.5,163.833 277.5,164.167 277.5,164.5C 277.5,219.833 277.5,275.167 277.5,330.5C 240.833,330.5 204.167,330.5 167.5,330.5C 158.753,274.86 150.086,219.193 141.5,163.5 Z"/></g>
<g><path style="opacity:1" fill="#0070a2" d="M 277.5,164.5 C 325.512,163.838 373.178,164.505 420.5,166.5C 413.819,221.27 406.485,275.936 398.5,330.5C 358.167,330.5 317.833,330.5 277.5,330.5C 277.5,275.167 277.5,219.833 277.5,164.5 Z"/></g>
<g><path style="opacity:1" fill="#f9ba00" d="M 421.5,164.5 C 451.5,194.167 481.5,223.833 511.5,253.5C 511.5,339.5 511.5,425.5 511.5,511.5C 435.167,511.5 358.833,511.5 282.5,511.5C 249.452,478.119 216.452,444.786 183.5,411.5C 195.859,418.234 206.692,416.234 216,405.5C 221.78,395.855 221.947,386.189 216.5,376.5C 236.833,376.5 257.167,376.5 277.5,376.5C 297.167,376.5 316.833,376.5 336.5,376.5C 329.198,387.99 330.198,398.824 339.5,409C 352.65,418.532 364.817,417.365 376,405.5C 381.78,395.855 381.947,386.189 376.5,376.5C 382.833,376.5 389.167,376.5 395.5,376.5C 395.5,369.833 395.5,363.167 395.5,356.5C 356.167,356.5 316.833,356.5 277.5,356.5C 242.167,356.5 206.833,356.5 171.5,356.5C 170.254,348.868 169.254,341.201 168.5,333.5C 244.995,331.834 321.661,330.834 398.5,330.5C 406.485,275.936 413.819,221.27 420.5,166.5C 421.338,166.158 421.672,165.492 421.5,164.5 Z"/></g>
<g><path style="opacity:1" fill="#00b4f9" d="M 167.5,188.5 C 177.167,188.5 186.833,188.5 196.5,188.5C 199.714,227.521 203.047,266.521 206.5,305.5C 198.167,305.5 189.833,305.5 181.5,305.5C 176.713,266.512 172.047,227.512 167.5,188.5 Z"/></g>
<g><path style="opacity:1" fill="#00b4f9" d="M 229.5,188.5 C 238.5,188.5 247.5,188.5 256.5,188.5C 257.641,227.496 258.641,266.496 259.5,305.5C 251.833,305.5 244.167,305.5 236.5,305.5C 234.872,266.453 232.539,227.453 229.5,188.5 Z"/></g>
<g><path style="opacity:1" fill="#0088c0" d="M 299.5,188.5 C 308.5,188.5 317.5,188.5 326.5,188.5C 323.346,227.448 321.013,266.448 319.5,305.5C 311.833,305.5 304.167,305.5 296.5,305.5C 297.278,266.494 298.278,227.494 299.5,188.5 Z"/></g>
<g><path style="opacity:1" fill="#0088c0" d="M 359.5,188.5 C 369.167,188.5 378.833,188.5 388.5,188.5C 383.833,227.499 379.167,266.499 374.5,305.5C 365.833,305.5 357.167,305.5 348.5,305.5C 352.364,266.523 356.031,227.523 359.5,188.5 Z"/></g>
<g><path style="opacity:1" fill="#ccb01f" d="M 167.5,330.5 C 204.167,330.5 240.833,330.5 277.5,330.5C 317.833,330.5 358.167,330.5 398.5,330.5C 321.661,330.834 244.995,331.834 168.5,333.5C 167.596,332.791 167.263,331.791 167.5,330.5 Z"/></g>
<g><path style="opacity:1" fill="#00253e" d="M 277.5,356.5 C 316.833,356.5 356.167,356.5 395.5,356.5C 395.5,363.167 395.5,369.833 395.5,376.5C 389.167,376.5 382.833,376.5 376.5,376.5C 363.167,376.5 349.833,376.5 336.5,376.5C 316.833,376.5 297.167,376.5 277.5,376.5C 277.5,369.833 277.5,363.167 277.5,356.5 Z"/></g>
<g><path style="opacity:1" fill="#f1b604" d="M 155.5,376.5 C 162.5,376.5 169.5,376.5 176.5,376.5C 172.925,382.254 171.591,388.588 172.5,395.5C 167.259,388.918 161.592,382.584 155.5,376.5 Z"/></g>
<g><path style="opacity:1" fill="#03253d" d="M 176.5,376.5 C 189.833,376.5 203.167,376.5 216.5,376.5C 221.947,386.189 221.78,395.855 216,405.5C 206.692,416.234 195.859,418.234 183.5,411.5C 177.502,407.825 173.835,402.491 172.5,395.5C 171.591,388.588 172.925,382.254 176.5,376.5 Z"/></g>
<g><path style="opacity:1" fill="#041319" d="M 336.5,376.5 C 349.833,376.5 363.167,376.5 376.5,376.5C 381.947,386.189 381.78,395.855 376,405.5C 364.817,417.365 352.65,418.532 339.5,409C 330.198,398.824 329.198,387.99 336.5,376.5 Z"/></g>
</svg>
